<?xml version="1.0" standalone="no"?>
<!DOCTYPE svg PUBLIC "-//W3C//DTD SVG 20010904//EN"
 "http://www.w3.org/TR/2001/REC-SVG-20010904/DTD/svg10.dtd">
<svg version="1.0" xmlns="http://www.w3.org/2000/svg"
 width="926.000000pt" height="926.000000pt" viewBox="0 0 926.000000 926.000000"
 preserveAspectRatio="xMidYMid meet">
<metadata>
Created by potrace 1.14, written by Peter Selinger 2001-2017
</metadata>
<g transform="translate(0.000000,926.000000) scale(0.100000,-0.100000)"
fill="#000000" stroke="none">
<path d="M4540 8968 c-110 -12 -174 -19 -205 -23 -16 -2 -52 -7 -80 -10 -52
-6 -241 -53 -455 -112 -69 -19 -150 -41 -180 -49 -30 -9 -66 -18 -79 -20 -14
-3 -28 -7 -33 -10 -4 -3 -33 -12 -65 -20 -97 -25 -569 -274 -763 -402 -159
-105 -317 -216 -330 -231 -3 -4 -36 -31 -75 -61 -38 -30 -77 -62 -85 -70 -9
-8 -41 -37 -72 -65 -284 -256 -282 -254 -393 -385 -53 -63 -107 -126 -119
-140 -91 -106 -156 -196 -236 -330 -51 -85 -101 -166 -110 -180 -9 -14 -47
-83 -85 -155 -37 -71 -85 -161 -106 -200 -21 -38 -58 -124 -84 -190 -25 -66
-49 -129 -54 -140 -38 -85 -95 -266 -126 -403 -5 -20 -37 -141 -58 -222 -8
-30 -17 -73 -20 -95 -11 -75 -18 -120 -27 -170 -5 -27 -11 -68 -14 -90 -3 -22
-7 -49 -10 -60 -15 -77 -19 -140 -19 -380 1 -238 7 -404 19 -500 2 -16 6 -64
9 -105 8 -111 11 -124 66 -343 28 -111 53 -213 55 -227 3 -14 52 -169 111
-345 105 -318 118 -349 258 -610 18 -33 51 -96 74 -139 35 -65 103 -170 144
-221 4 -5 52 -73 106 -150 63 -90 144 -187 224 -270 69 -72 163 -170 209 -217
75 -78 123 -121 298 -268 30 -25 92 -77 138 -117 67 -57 265 -190 384 -258 10
-5 71 -43 135 -83 98 -61 175 -97 453 -209 320 -129 422 -161 620 -197 14 -2
63 -13 110 -24 47 -11 121 -28 165 -37 44 -9 89 -19 100 -22 11 -3 301 -6 645
-7 605 -2 628 -1 730 20 237 49 389 86 450 110 36 15 74 30 85 34 11 4 36 15
55 23 87 38 352 141 520 201 235 85 267 100 363 170 94 68 507 377 531 397 6
5 38 30 71 55 33 25 91 78 129 117 221 231 271 287 392 433 73 89 138 172 146
185 7 13 15 26 18 29 18 18 310 522 310 535 0 3 11 22 24 43 30 49 142 266
186 362 18 41 58 127 88 190 83 175 90 194 97 251 3 30 8 61 10 69 2 8 6 38
10 65 7 54 11 88 25 180 5 33 12 85 16 115 3 30 9 60 13 65 3 6 7 240 8 520 1
386 -2 532 -12 600 -16 103 -22 144 -35 235 -6 36 -12 76 -14 90 -3 14 -7 48
-10 75 -4 28 -9 64 -12 80 -6 28 -135 415 -154 460 -4 11 -20 56 -35 100 -24
71 -86 219 -150 360 -13 28 -47 102 -75 165 -44 100 -75 147 -228 350 -171
227 -197 259 -272 339 -19 21 -69 74 -110 117 -41 44 -127 136 -190 203 -129
138 -379 336 -699 554 -97 66 -205 140 -241 165 -45 32 -160 84 -395 180 -348
143 -386 154 -841 262 l-219 52 -395 4 c-217 3 -433 6 -480 7 -47 1 -114 -1
-150 -5z"/>
</g>
</svg>
